# xmcd
#
# Track frame offsets:
#	150
#	23012
#	58175
#	83452
#	123687
#	140675
#	187150
#	211887
#	226625
#	243200
#
# Disc length: 3432 seconds
#
# Revision: 1
# Processed by: cddbd v1.4PL0 Copyright (c) Steve Scherf et al.
# Submitted via: EasyCDDAExtractor 5.0.7
#
DISCID=820d660a
DTITLE=Canned Heat - Bullfrog Blues
DYEAR=1900
DGENRE=Blues
TTITLE0=I'd Rather Be The Devil
TTITLE1=Wish You Would
TTITLE2=Dust My Broom
TTITLE3=When Things Go Wrong
TTITLE4=Bullfrog Blues
TTITLE5=Sweet Sixteen
TTITLE6=Human Condition
TTITLE7=she's Looking Good
TTITLE8=Open Up You Back Door
TTITLE9=Wrapped Up
EXTD=
EXTT0=
EXTT1=
EXTT2=
EXTT3=
EXTT4=
EXTT5=
EXTT6=
EXTT7=
EXTT8=
EXTT9=
PLAYORDER=
